<mxfile host="app.diagrams.net" agent="Mozilla/5.0 (X11; Linux x86_64) AppleWebKit/537.36 (KHTML, like Gecko) Chrome/118.0.0.0 Safari/537.36" version="27.0.3">
  <diagram name="Страница — 1" id="iXKBSagJiUr_qD_LvLRX">
    <mxGraphModel dx="2422" dy="951" grid="1" gridSize="10" guides="1" tooltips="1" connect="1" arrows="1" fold="1" page="1" pageScale="1" pageWidth="827" pageHeight="1169" math="0" shadow="0">
      <root>
        <mxCell id="0" />
        <mxCell id="1" parent="0" />
        <mxCell id="QE3bn2jYNVTKnfU2roEE-16" value="" style="rounded=0;whiteSpace=wrap;html=1;fillColor=#e1d5e7;strokeColor=#9673a6;" parent="1" vertex="1">
          <mxGeometry x="-670" y="401" width="260" height="179" as="geometry" />
        </mxCell>
        <mxCell id="IeSUwaB9jIrNO8kcGbB0-12" value="" style="rounded=0;whiteSpace=wrap;html=1;fillColor=#000098;strokeColor=#6c8ebf;" parent="1" vertex="1">
          <mxGeometry y="180" width="640" height="480" as="geometry" />
        </mxCell>
        <mxCell id="IeSUwaB9jIrNO8kcGbB0-4" style="edgeStyle=orthogonalEdgeStyle;rounded=0;orthogonalLoop=1;jettySize=auto;html=1;fontColor=#FFFFFF;strokeColor=#FFFFFF;" parent="1" source="IeSUwaB9jIrNO8kcGbB0-2" target="IeSUwaB9jIrNO8kcGbB0-3" edge="1">
          <mxGeometry relative="1" as="geometry" />
        </mxCell>
        <mxCell id="IeSUwaB9jIrNO8kcGbB0-2" value="&lt;font style=&quot;font-size: 20px;&quot; color=&quot;#ffffff&quot;&gt;Server&lt;/font&gt;" style="rounded=1;whiteSpace=wrap;html=1;fillColor=#0000DD;strokeColor=#FFFFFF;" parent="1" vertex="1">
          <mxGeometry x="20" y="240" width="300" height="140" as="geometry" />
        </mxCell>
        <mxCell id="IeSUwaB9jIrNO8kcGbB0-3" value="Internal Storage" style="shape=cylinder3;whiteSpace=wrap;html=1;boundedLbl=1;backgroundOutline=1;size=15;fillColor=#0000DD;strokeColor=#FFFFFF;fontSize=20;fontColor=#FFFFFF;" parent="1" vertex="1">
          <mxGeometry x="440" y="341" width="190" height="150" as="geometry" />
        </mxCell>
        <mxCell id="IeSUwaB9jIrNO8kcGbB0-8" style="edgeStyle=orthogonalEdgeStyle;rounded=0;orthogonalLoop=1;jettySize=auto;html=1;strokeColor=#FFFFFF;entryX=0;entryY=0;entryDx=0;entryDy=105;entryPerimeter=0;" parent="1" source="IeSUwaB9jIrNO8kcGbB0-7" edge="1" target="IeSUwaB9jIrNO8kcGbB0-3">
          <mxGeometry relative="1" as="geometry">
            <mxPoint x="430" y="510" as="targetPoint" />
          </mxGeometry>
        </mxCell>
        <mxCell id="IeSUwaB9jIrNO8kcGbB0-7" value="&lt;div&gt;Index Periodic Job&lt;/div&gt;" style="rounded=1;whiteSpace=wrap;html=1;fillColor=#0000DD;strokeColor=#FFFFFF;fontSize=20;gradientColor=none;fontColor=#FFFFFF;" parent="1" vertex="1">
          <mxGeometry x="20" y="415" width="300" height="140" as="geometry" />
        </mxCell>
        <mxCell id="IeSUwaB9jIrNO8kcGbB0-15" value="&lt;font color=&quot;#ffff00&quot; style=&quot;font-size: 24px;&quot;&gt;&lt;b style=&quot;&quot;&gt;Captain Bridge&lt;/b&gt;&lt;/font&gt;" style="text;html=1;align=center;verticalAlign=middle;whiteSpace=wrap;rounded=0;" parent="1" vertex="1">
          <mxGeometry x="430" y="180" width="210" height="50" as="geometry" />
        </mxCell>
        <mxCell id="IeSUwaB9jIrNO8kcGbB0-19" value="&lt;font style=&quot;font-size: 20px;&quot;&gt;&lt;b&gt;Atlassian JIRA&lt;/b&gt;&lt;/font&gt;" style="whiteSpace=wrap;html=1;aspect=fixed;verticalAlign=top;" parent="1" vertex="1">
          <mxGeometry x="-310" y="415" width="155" height="155" as="geometry" />
        </mxCell>
        <mxCell id="IeSUwaB9jIrNO8kcGbB0-20" value="" style="shape=actor;whiteSpace=wrap;html=1;fillColor=#FF3399;strokeColor=#6c8ebf;" parent="1" vertex="1">
          <mxGeometry x="-560" y="150" width="40" height="60" as="geometry" />
        </mxCell>
        <mxCell id="IeSUwaB9jIrNO8kcGbB0-22" value="&lt;font&gt;Manager&lt;/font&gt;" style="text;html=1;align=center;verticalAlign=middle;whiteSpace=wrap;rounded=0;fontSize=20;" parent="1" vertex="1">
          <mxGeometry x="-580" y="210" width="60" height="30" as="geometry" />
        </mxCell>
        <mxCell id="QE3bn2jYNVTKnfU2roEE-5" value="" style="shape=actor;whiteSpace=wrap;html=1;" parent="1" vertex="1">
          <mxGeometry x="-630" y="431" width="40" height="60" as="geometry" />
        </mxCell>
        <mxCell id="QE3bn2jYNVTKnfU2roEE-6" value="" style="shape=actor;whiteSpace=wrap;html=1;" parent="1" vertex="1">
          <mxGeometry x="-560" y="431" width="40" height="60" as="geometry" />
        </mxCell>
        <mxCell id="QE3bn2jYNVTKnfU2roEE-7" value="" style="shape=actor;whiteSpace=wrap;html=1;" parent="1" vertex="1">
          <mxGeometry x="-490" y="431" width="40" height="60" as="geometry" />
        </mxCell>
        <mxCell id="QE3bn2jYNVTKnfU2roEE-8" value="" style="shape=actor;whiteSpace=wrap;html=1;" parent="1" vertex="1">
          <mxGeometry x="-630" y="510" width="40" height="60" as="geometry" />
        </mxCell>
        <mxCell id="QE3bn2jYNVTKnfU2roEE-9" value="" style="shape=actor;whiteSpace=wrap;html=1;" parent="1" vertex="1">
          <mxGeometry x="-560" y="510" width="40" height="60" as="geometry" />
        </mxCell>
        <mxCell id="QE3bn2jYNVTKnfU2roEE-10" value="" style="shape=actor;whiteSpace=wrap;html=1;" parent="1" vertex="1">
          <mxGeometry x="-490" y="510" width="40" height="60" as="geometry" />
        </mxCell>
        <mxCell id="QE3bn2jYNVTKnfU2roEE-11" value="" style="image;html=1;image=img/lib/atlassian/Jira_Logo.svg;" parent="1" vertex="1">
          <mxGeometry x="-268.5" y="474" width="72" height="72" as="geometry" />
        </mxCell>
        <mxCell id="QE3bn2jYNVTKnfU2roEE-15" value="" style="verticalLabelPosition=bottom;verticalAlign=top;html=1;strokeWidth=2;shape=mxgraph.arrows2.arrow;dy=0.6;dx=40;notch=0;" parent="1" vertex="1">
          <mxGeometry x="-155" y="460" width="175" height="70" as="geometry" />
        </mxCell>
        <mxCell id="QE3bn2jYNVTKnfU2roEE-17" value="&lt;font style=&quot;font-size: 20px;&quot;&gt;Team&lt;/font&gt;" style="text;html=1;align=center;verticalAlign=middle;whiteSpace=wrap;rounded=0;" parent="1" vertex="1">
          <mxGeometry x="-470" y="401" width="60" height="30" as="geometry" />
        </mxCell>
        <mxCell id="QE3bn2jYNVTKnfU2roEE-19" value="" style="shape=flexArrow;endArrow=classic;startArrow=classic;html=1;rounded=0;" parent="1" edge="1">
          <mxGeometry width="100" height="100" relative="1" as="geometry">
            <mxPoint x="-400" y="496.5" as="sourcePoint" />
            <mxPoint x="-320" y="496.5" as="targetPoint" />
          </mxGeometry>
        </mxCell>
        <mxCell id="QE3bn2jYNVTKnfU2roEE-20" value="" style="shape=flexArrow;endArrow=classic;startArrow=classic;html=1;rounded=0;" parent="1" edge="1">
          <mxGeometry width="100" height="100" relative="1" as="geometry">
            <mxPoint x="-510" y="190" as="sourcePoint" />
            <mxPoint x="-10" y="290" as="targetPoint" />
          </mxGeometry>
        </mxCell>
        <mxCell id="QE3bn2jYNVTKnfU2roEE-21" value="" style="shape=flexArrow;endArrow=classic;startArrow=classic;html=1;rounded=0;" parent="1" edge="1">
          <mxGeometry width="100" height="100" relative="1" as="geometry">
            <mxPoint x="-540" y="390" as="sourcePoint" />
            <mxPoint x="-540" y="260" as="targetPoint" />
          </mxGeometry>
        </mxCell>
      </root>
    </mxGraphModel>
  </diagram>
</mxfile>
